<mxfile host="app.diagrams.net" modified="2020-12-29T16:44:40.357Z" agent="5.0 (Windows NT 10.0; Win64; x64) AppleWebKit/537.36 (KHTML, like Gecko) Chrome/87.0.4280.88 Safari/537.36" etag="nQORG4UU72b7SRk8LJ7k" version="14.1.3" type="github">
  <diagram id="g3l9Q5qQpjjXhQ2ud_gX" name="Page-1">
    <mxGraphModel dx="677" dy="252" grid="0" gridSize="10" guides="1" tooltips="1" connect="1" arrows="1" fold="1" page="1" pageScale="1" pageWidth="1169" pageHeight="827" math="0" shadow="0">
      <root>
        <mxCell id="0" />
        <mxCell id="1" parent="0" />
        <mxCell id="P2kNOt0PvAssRr6vCl2o-34" value="" style="edgeStyle=orthogonalEdgeStyle;rounded=0;orthogonalLoop=1;jettySize=auto;html=1;fontFamily=Times New Roman;entryX=0.5;entryY=0;entryDx=0;entryDy=0;" edge="1" parent="1" source="P2kNOt0PvAssRr6vCl2o-23" target="P2kNOt0PvAssRr6vCl2o-24">
          <mxGeometry relative="1" as="geometry" />
        </mxCell>
        <mxCell id="P2kNOt0PvAssRr6vCl2o-23" value="&lt;font face=&quot;Times New Roman&quot;&gt;Bắt đầu&lt;/font&gt;" style="ellipse;whiteSpace=wrap;html=1;gradientColor=#F0F0F0;" vertex="1" parent="1">
          <mxGeometry x="350" y="70" width="100" height="40" as="geometry" />
        </mxCell>
        <mxCell id="P2kNOt0PvAssRr6vCl2o-35" value="" style="edgeStyle=orthogonalEdgeStyle;rounded=0;orthogonalLoop=1;jettySize=auto;html=1;fontFamily=Times New Roman;" edge="1" parent="1" source="P2kNOt0PvAssRr6vCl2o-24" target="P2kNOt0PvAssRr6vCl2o-25">
          <mxGeometry relative="1" as="geometry" />
        </mxCell>
        <mxCell id="P2kNOt0PvAssRr6vCl2o-24" value="Khởi tạo ADC, UART, PWM" style="rounded=0;whiteSpace=wrap;html=1;fontFamily=Times New Roman;gradientColor=#F0F0F0;" vertex="1" parent="1">
          <mxGeometry x="340" y="130" width="120" height="30" as="geometry" />
        </mxCell>
        <mxCell id="P2kNOt0PvAssRr6vCl2o-36" value="" style="edgeStyle=orthogonalEdgeStyle;rounded=0;orthogonalLoop=1;jettySize=auto;html=1;fontFamily=Times New Roman;" edge="1" parent="1" source="P2kNOt0PvAssRr6vCl2o-25" target="P2kNOt0PvAssRr6vCl2o-26">
          <mxGeometry relative="1" as="geometry" />
        </mxCell>
        <mxCell id="P2kNOt0PvAssRr6vCl2o-25" value="Nhận và gán tín hiệu có 2 kí tự từ Gateway cho mảng Rx_data[2]" style="rounded=0;whiteSpace=wrap;html=1;fontFamily=Times New Roman;gradientColor=#F0F0F0;" vertex="1" parent="1">
          <mxGeometry x="340" y="180" width="120" height="50" as="geometry" />
        </mxCell>
        <mxCell id="P2kNOt0PvAssRr6vCl2o-37" value="" style="edgeStyle=orthogonalEdgeStyle;rounded=0;orthogonalLoop=1;jettySize=auto;html=1;fontFamily=Times New Roman;entryX=0.5;entryY=0;entryDx=0;entryDy=0;" edge="1" parent="1" source="P2kNOt0PvAssRr6vCl2o-26" target="P2kNOt0PvAssRr6vCl2o-28">
          <mxGeometry relative="1" as="geometry" />
        </mxCell>
        <mxCell id="P2kNOt0PvAssRr6vCl2o-41" value="" style="edgeStyle=orthogonalEdgeStyle;rounded=0;orthogonalLoop=1;jettySize=auto;html=1;fontFamily=Times New Roman;" edge="1" parent="1" source="P2kNOt0PvAssRr6vCl2o-26" target="P2kNOt0PvAssRr6vCl2o-27">
          <mxGeometry relative="1" as="geometry" />
        </mxCell>
        <mxCell id="P2kNOt0PvAssRr6vCl2o-26" value="Rx_data[0] = &quot;1&quot;÷&quot;4&quot;?" style="rhombus;whiteSpace=wrap;html=1;fontFamily=Times New Roman;gradientColor=#F0F0F0;" vertex="1" parent="1">
          <mxGeometry x="315" y="280" width="170" height="60" as="geometry" />
        </mxCell>
        <mxCell id="P2kNOt0PvAssRr6vCl2o-27" value="Rx_data[0] = &quot;P&quot;?" style="rhombus;whiteSpace=wrap;html=1;fontFamily=Times New Roman;gradientColor=#F0F0F0;" vertex="1" parent="1">
          <mxGeometry x="510" y="280" width="170" height="60" as="geometry" />
        </mxCell>
        <mxCell id="P2kNOt0PvAssRr6vCl2o-38" value="" style="edgeStyle=orthogonalEdgeStyle;rounded=0;orthogonalLoop=1;jettySize=auto;html=1;fontFamily=Times New Roman;entryX=0.5;entryY=0;entryDx=0;entryDy=0;" edge="1" parent="1" source="P2kNOt0PvAssRr6vCl2o-28" target="P2kNOt0PvAssRr6vCl2o-30">
          <mxGeometry relative="1" as="geometry" />
        </mxCell>
        <mxCell id="P2kNOt0PvAssRr6vCl2o-28" value="Lưu Rx_data[1] là&lt;br&gt;Độ ẩm lý tưởng" style="rounded=0;whiteSpace=wrap;html=1;fontFamily=Times New Roman;gradientColor=#F0F0F0;" vertex="1" parent="1">
          <mxGeometry x="340" y="370" width="120" height="30" as="geometry" />
        </mxCell>
        <mxCell id="P2kNOt0PvAssRr6vCl2o-42" value="" style="edgeStyle=orthogonalEdgeStyle;rounded=0;orthogonalLoop=1;jettySize=auto;html=1;fontFamily=Times New Roman;" edge="1" parent="1" source="P2kNOt0PvAssRr6vCl2o-29" target="P2kNOt0PvAssRr6vCl2o-32">
          <mxGeometry relative="1" as="geometry" />
        </mxCell>
        <mxCell id="P2kNOt0PvAssRr6vCl2o-29" value="Lưu Rx_data[1] là&lt;br&gt;Công suất bơm" style="rounded=0;whiteSpace=wrap;html=1;fontFamily=Times New Roman;gradientColor=#F0F0F0;" vertex="1" parent="1">
          <mxGeometry x="535" y="370" width="120" height="30" as="geometry" />
        </mxCell>
        <mxCell id="P2kNOt0PvAssRr6vCl2o-39" value="" style="edgeStyle=orthogonalEdgeStyle;rounded=0;orthogonalLoop=1;jettySize=auto;html=1;fontFamily=Times New Roman;" edge="1" parent="1" source="P2kNOt0PvAssRr6vCl2o-30" target="P2kNOt0PvAssRr6vCl2o-31">
          <mxGeometry relative="1" as="geometry" />
        </mxCell>
        <mxCell id="P2kNOt0PvAssRr6vCl2o-30" value="Truyền dữ liệu độ ẩm cho Gateway" style="rounded=0;whiteSpace=wrap;html=1;fontFamily=Times New Roman;gradientColor=#F0F0F0;" vertex="1" parent="1">
          <mxGeometry x="340" y="420" width="120" height="30" as="geometry" />
        </mxCell>
        <mxCell id="P2kNOt0PvAssRr6vCl2o-40" value="" style="edgeStyle=orthogonalEdgeStyle;rounded=0;orthogonalLoop=1;jettySize=auto;html=1;fontFamily=Times New Roman;" edge="1" parent="1" source="P2kNOt0PvAssRr6vCl2o-31" target="P2kNOt0PvAssRr6vCl2o-33">
          <mxGeometry relative="1" as="geometry" />
        </mxCell>
        <mxCell id="P2kNOt0PvAssRr6vCl2o-31" value="Điều khiển van" style="rounded=0;whiteSpace=wrap;html=1;fontFamily=Times New Roman;gradientColor=#F0F0F0;" vertex="1" parent="1">
          <mxGeometry x="340" y="470" width="120" height="20" as="geometry" />
        </mxCell>
        <mxCell id="P2kNOt0PvAssRr6vCl2o-32" value="Điều khiển bơm" style="rounded=0;whiteSpace=wrap;html=1;fontFamily=Times New Roman;gradientColor=#F0F0F0;" vertex="1" parent="1">
          <mxGeometry x="535" y="470" width="120" height="20" as="geometry" />
        </mxCell>
        <mxCell id="P2kNOt0PvAssRr6vCl2o-33" value="&lt;font face=&quot;Times New Roman&quot;&gt;Kết thúc&lt;/font&gt;" style="ellipse;whiteSpace=wrap;html=1;gradientColor=#F0F0F0;" vertex="1" parent="1">
          <mxGeometry x="350" y="540" width="100" height="40" as="geometry" />
        </mxCell>
        <mxCell id="P2kNOt0PvAssRr6vCl2o-43" value="" style="endArrow=classic;html=1;fontFamily=Times New Roman;exitX=0.5;exitY=1;exitDx=0;exitDy=0;entryX=0.5;entryY=0;entryDx=0;entryDy=0;" edge="1" parent="1" source="P2kNOt0PvAssRr6vCl2o-27" target="P2kNOt0PvAssRr6vCl2o-29">
          <mxGeometry width="50" height="50" relative="1" as="geometry">
            <mxPoint x="580" y="390" as="sourcePoint" />
            <mxPoint x="630" y="340" as="targetPoint" />
          </mxGeometry>
        </mxCell>
        <mxCell id="P2kNOt0PvAssRr6vCl2o-44" value="" style="endArrow=classic;html=1;fontFamily=Times New Roman;" edge="1" parent="1">
          <mxGeometry width="50" height="50" relative="1" as="geometry">
            <mxPoint x="595" y="250" as="sourcePoint" />
            <mxPoint x="400" y="250" as="targetPoint" />
          </mxGeometry>
        </mxCell>
        <mxCell id="P2kNOt0PvAssRr6vCl2o-45" value="" style="endArrow=none;html=1;fontFamily=Times New Roman;exitX=0.5;exitY=0;exitDx=0;exitDy=0;" edge="1" parent="1" source="P2kNOt0PvAssRr6vCl2o-27">
          <mxGeometry width="50" height="50" relative="1" as="geometry">
            <mxPoint x="470" y="300" as="sourcePoint" />
            <mxPoint x="595" y="250" as="targetPoint" />
          </mxGeometry>
        </mxCell>
        <mxCell id="P2kNOt0PvAssRr6vCl2o-46" value="Sai" style="text;html=1;strokeColor=none;fillColor=none;align=center;verticalAlign=middle;whiteSpace=wrap;rounded=0;fontFamily=Times New Roman;" vertex="1" parent="1">
          <mxGeometry x="470" y="290" width="40" height="20" as="geometry" />
        </mxCell>
        <mxCell id="P2kNOt0PvAssRr6vCl2o-47" value="Sai" style="text;html=1;strokeColor=none;fillColor=none;align=center;verticalAlign=middle;whiteSpace=wrap;rounded=0;fontFamily=Times New Roman;" vertex="1" parent="1">
          <mxGeometry x="590" y="260" width="40" height="20" as="geometry" />
        </mxCell>
        <mxCell id="P2kNOt0PvAssRr6vCl2o-48" value="Đúng" style="text;html=1;strokeColor=none;fillColor=none;align=center;verticalAlign=middle;whiteSpace=wrap;rounded=0;fontFamily=Times New Roman;" vertex="1" parent="1">
          <mxGeometry x="590" y="340" width="40" height="20" as="geometry" />
        </mxCell>
        <mxCell id="P2kNOt0PvAssRr6vCl2o-49" value="Đúng" style="text;html=1;strokeColor=none;fillColor=none;align=center;verticalAlign=middle;whiteSpace=wrap;rounded=0;fontFamily=Times New Roman;" vertex="1" parent="1">
          <mxGeometry x="400" y="340" width="40" height="20" as="geometry" />
        </mxCell>
        <mxCell id="P2kNOt0PvAssRr6vCl2o-50" value="" style="endArrow=classic;html=1;fontFamily=Times New Roman;" edge="1" parent="1">
          <mxGeometry width="50" height="50" relative="1" as="geometry">
            <mxPoint x="595" y="510" as="sourcePoint" />
            <mxPoint x="400" y="510" as="targetPoint" />
          </mxGeometry>
        </mxCell>
        <mxCell id="P2kNOt0PvAssRr6vCl2o-51" value="" style="endArrow=none;html=1;fontFamily=Times New Roman;" edge="1" parent="1">
          <mxGeometry width="50" height="50" relative="1" as="geometry">
            <mxPoint x="595" y="510" as="sourcePoint" />
            <mxPoint x="594.92" y="490" as="targetPoint" />
          </mxGeometry>
        </mxCell>
      </root>
    </mxGraphModel>
  </diagram>
</mxfile>
